<svg width="65" height="64" viewBox="0 0 65 64" fill="none" xmlns="http://www.w3.org/2000/svg">
<path fill-rule="evenodd" clip-rule="evenodd" d="M11.7627 55.604L10.0267 9.37595C9.97207 7.84929 11.1454 6.55729 12.6694 6.46395L43.4801 4.53729L45.8334 5.33329L48.8934 4.19862L51.9814 4.00529C53.5321 3.90662 54.8694 5.08395 54.9694 6.63462C54.9734 6.69462 54.9747 6.75595 54.9747 6.81729V57.1866C54.9734 58.7426 53.7107 60.0026 52.1547 60.0013C52.1134 60.0013 52.0721 60 52.0321 59.9986L14.4507 58.3106C12.9867 58.2453 11.8187 57.0693 11.7627 55.604Z" fill="#FF4081"/>
<path fill-rule="evenodd" clip-rule="evenodd" d="M48.8907 4.19873L43.4814 4.53473L43.2187 10.8827C43.2094 11.1147 43.3894 11.3094 43.6214 11.3201C43.7187 11.3241 43.8134 11.2947 43.8907 11.2361L46.3547 9.3654L48.4374 11.0067C48.6187 11.1507 48.884 11.1201 49.0267 10.9387C49.088 10.8601 49.12 10.7627 49.1174 10.6627L48.8933 4.20006L48.8907 4.19873ZM44.68 25.4507C43.692 26.2201 36.3107 26.7441 36.3107 25.6494C36.468 21.4694 34.5974 21.2867 33.556 21.2867C32.5707 21.2867 30.9067 21.5841 30.9067 23.8241C30.9067 26.1054 33.3373 27.3934 36.1907 28.9054C40.2427 31.0534 45.1507 33.6547 45.1507 40.1947C45.1507 46.4667 40.0547 49.9281 33.5587 49.9281C26.8534 49.9281 20.992 47.2147 21.6533 37.8094C21.9133 36.7067 30.44 36.9694 30.44 37.8094C30.3334 41.6907 31.2187 42.8321 33.4534 42.8321C35.1694 42.8321 35.948 41.8854 35.948 40.2947C35.948 37.8841 33.4174 36.4614 30.5027 34.8267C26.5574 32.6121 21.9147 30.0054 21.9147 24.0214C21.9147 18.0521 26.02 14.0707 33.3493 14.0707C40.6787 14.0707 44.68 17.9921 44.68 25.4507Z" fill="white"/>
</svg>
