<svg width="31" height="64" viewBox="0 0 31 64" fill="none" xmlns="http://www.w3.org/2000/svg">
<g clip-path="url(#clip0_327_527)">
<path d="M21.2076 7.13325C18.5096 3.94632 16.1864 0.709589 15.7118 0.0373468C15.6618 -0.0124489 15.5868 -0.0124489 15.5369 0.0373468C15.0622 0.709589 12.739 3.94632 10.041 7.13325C-13.1164 36.5376 13.6883 56.3813 13.6883 56.3813L13.9131 56.5306C14.1129 59.5932 14.6126 64 14.6126 64H15.6118H16.6111C16.6111 64 17.1107 59.618 17.3105 56.5306L17.5353 56.3565C17.5603 56.3565 44.3649 36.5376 21.2076 7.13325ZM15.6118 55.933C15.6118 55.933 14.4127 54.9123 14.088 54.3893V54.3397L15.5369 22.3209C15.5369 22.2213 15.6868 22.2213 15.6868 22.3209L17.1357 54.3397V54.3893C16.8109 54.9123 15.6118 55.933 15.6118 55.933Z" fill="#00684A"/>
</g>
<defs>
<clipPath id="clip0_327_527">
<rect width="29.7674" height="64" fill="white" transform="translate(0.616211)"/>
</clipPath>
</defs>
</svg>
