<svg width="65" height="64" viewBox="0 0 65 64" fill="none" xmlns="http://www.w3.org/2000/svg">
<path d="M53.7925 34.6079C51.7418 34.6186 49.9658 35.1106 48.4778 35.8452C47.9338 34.7586 47.3818 33.8026 47.2898 33.0919C47.1818 32.2626 47.0565 31.7666 47.1871 30.7786C47.3178 29.7906 47.8898 28.3906 47.8818 28.2852C47.8738 28.1799 47.7538 27.6772 46.5711 27.6679C45.3885 27.6599 44.3765 27.8959 44.2578 28.2079C44.1392 28.5199 43.9111 29.2226 43.7698 29.9559C43.5631 31.0279 41.4085 34.8532 40.1858 36.8532C39.7858 36.0719 39.4458 35.3839 39.3752 34.8399C39.2672 34.0106 39.1418 33.5146 39.2725 32.5266C39.4032 31.5386 39.9752 30.1386 39.9672 30.0332C39.9592 29.9279 39.8391 29.4252 38.6565 29.4159C37.4738 29.4079 36.4618 29.6439 36.3432 29.9559C36.2245 30.2679 36.0965 30.9972 35.8552 31.7039C35.6125 32.4092 32.7498 38.7892 31.9992 40.4439C31.6165 41.2866 31.2845 41.9639 31.0498 42.4252L31.0485 42.4226C31.0485 42.4226 31.0338 42.4532 31.0098 42.5052C30.8085 42.8986 30.6898 43.1159 30.6898 43.1159C30.6898 43.1159 30.6912 43.1186 30.6938 43.1239C30.5338 43.4132 30.3632 43.6812 30.2792 43.6812C30.2205 43.6812 30.1018 42.9119 30.3045 41.8559C30.7312 39.6426 31.7538 36.1919 31.7445 36.0719C31.7392 36.0106 31.9352 35.4092 31.0765 35.0946C30.2418 34.7892 29.9445 35.2986 29.8685 35.2999C29.7952 35.3012 29.7405 35.4799 29.7405 35.4799C29.7405 35.4799 30.6698 31.5986 27.9672 31.5986C26.2765 31.5986 23.9352 33.4479 22.7818 35.1239C22.0538 35.5212 20.4952 36.3719 18.8432 37.2799C18.2085 37.6292 17.5605 37.9852 16.9458 38.3239C16.9045 38.2772 16.8618 38.2319 16.8192 38.1852C13.5405 34.6879 7.48182 32.2146 7.73782 27.5119C7.83115 25.8026 8.42582 21.3012 19.3818 15.8426C28.3565 11.3706 35.5418 12.6012 36.7832 15.3279C38.5565 19.2252 32.9432 26.4666 23.6232 27.5119C20.0725 27.9106 18.2018 26.5332 17.7365 26.0212C17.2472 25.4812 17.1738 25.4572 16.9912 25.5586C16.6938 25.7239 16.8818 26.1999 16.9912 26.4839C17.2698 27.2079 18.4112 28.4919 20.3578 29.1319C22.0712 29.6946 26.2405 30.0026 31.2818 28.0519C36.9298 25.8679 41.3392 19.7906 40.0432 14.7119C38.7258 9.54658 30.1605 7.84791 22.0538 10.7279C17.2232 12.4426 12.0005 15.1332 8.24449 18.6452C3.77915 22.8212 3.06715 26.4572 3.36049 27.9759C4.40315 33.3732 11.8418 36.8879 14.8205 39.4919C14.6738 39.5732 14.5352 39.6492 14.4098 39.7186C12.9165 40.4572 7.24582 43.4252 5.82715 46.5599C4.21782 50.1159 6.08315 52.6679 7.31782 53.0119C11.1432 54.0759 15.0685 52.1612 17.1792 49.0146C19.2885 45.8692 19.0312 41.7719 18.0632 39.9026C18.0512 39.8799 18.0378 39.8572 18.0258 39.8332C18.4112 39.6052 18.8045 39.3732 19.1938 39.1439C19.9538 38.6972 20.7005 38.2812 21.3472 37.9292C20.9845 38.9212 20.7192 40.1119 20.5818 41.8306C20.4192 43.8492 21.2472 46.4586 22.3298 47.4852C22.8072 47.9372 23.3805 47.9479 23.7432 47.9479C25.0032 47.9479 25.5778 46.8999 26.2112 45.6599C26.9872 44.1399 27.6765 42.3692 27.6765 42.3692C27.6765 42.3692 26.8125 47.1506 29.1672 47.1506C30.0258 47.1506 30.8885 46.0372 31.2738 45.4706C31.2752 45.4772 31.2752 45.4799 31.2752 45.4799C31.2752 45.4799 31.2978 45.4426 31.3418 45.3692C31.4312 45.2332 31.4818 45.1466 31.4818 45.1466C31.4818 45.1466 31.4832 45.1372 31.4858 45.1212C31.8312 44.5226 32.5965 43.1572 33.7432 40.9052C35.2258 37.9959 36.6472 34.3506 36.6472 34.3506C36.6472 34.3506 36.7792 35.2412 37.2125 36.7159C37.4672 37.5826 38.0085 38.5412 38.4365 39.4612C38.0925 39.9386 37.8818 40.2119 37.8818 40.2119C37.8818 40.2119 37.8832 40.2172 37.8871 40.2266C37.6125 40.5919 37.3045 40.9852 36.9818 41.3692C35.8112 42.7626 34.4178 44.3546 34.2312 44.8132C34.0112 45.3546 34.0632 45.7519 34.4885 46.0732C34.7992 46.3066 35.3512 46.3439 35.9285 46.3052C36.9805 46.2346 37.7192 45.9732 38.0845 45.8146C38.6538 45.6132 39.3165 45.2972 39.9378 44.8399C41.0858 43.9959 41.7778 42.7892 41.7112 41.1892C41.6738 40.3079 41.3938 39.4346 41.0378 38.6106C41.1418 38.4612 41.2458 38.3092 41.3512 38.1572C43.1605 35.5119 44.5645 32.6052 44.5645 32.6052C44.5645 32.6052 44.6965 33.4959 45.1298 34.9706C45.3485 35.7159 45.7818 36.5306 46.1712 37.3279C44.4698 38.7106 43.4152 40.3172 43.0485 41.3706C42.3712 43.3199 42.9018 44.2026 43.8965 44.4039C44.3472 44.4946 44.9845 44.2879 45.4632 44.0852C46.0592 43.8879 46.7751 43.5586 47.4445 43.0666C48.5925 42.2226 49.6965 41.0412 49.6298 39.4426C49.5991 38.7146 49.4018 37.9919 49.1338 37.2986C50.5765 36.6972 52.4431 36.3639 54.8218 36.6412C59.9245 37.2372 60.9245 40.4226 60.7338 41.7559C60.5418 43.0892 59.4725 43.8226 59.1138 44.0439C58.7565 44.2652 58.6471 44.3426 58.6765 44.5066C58.7205 44.7452 58.8858 44.7372 59.1911 44.6852C59.6111 44.6146 61.8698 43.6012 61.9671 41.1399C62.0885 38.0119 59.0951 34.5799 53.7925 34.6079ZM14.4632 47.8666C12.7725 49.7106 10.4125 50.4066 9.39915 49.8199C8.30582 49.1866 8.73915 46.4719 10.8125 44.5146C12.0765 43.3226 13.7085 42.2239 14.7912 41.5479C15.0378 41.3999 15.3992 41.1826 15.8392 40.9186C15.9125 40.8772 15.9538 40.8546 15.9538 40.8546L15.9525 40.8519C16.0378 40.8012 16.1245 40.7492 16.2138 40.6946C16.9698 43.4799 16.2378 45.9319 14.4632 47.8666ZM26.7765 39.4972C26.1885 40.9319 24.9565 44.6039 24.2058 44.4066C23.5618 44.2372 23.1698 41.4466 24.0778 38.6999C24.5338 37.3172 25.5098 35.6652 26.0832 35.0239C27.0058 33.9919 28.0218 33.6546 28.2685 34.0732C28.5818 34.6066 27.1458 38.5972 26.7765 39.4972ZM36.9485 44.3506C36.6992 44.4812 36.4698 44.5626 36.3645 44.4999C36.2858 44.4532 36.4672 44.2812 36.4672 44.2812C36.4672 44.2812 37.7392 42.9119 38.2405 42.2892C38.5325 41.9266 38.8698 41.4959 39.2378 41.0159C39.2405 41.0639 39.2418 41.1119 39.2418 41.1586C39.2392 42.7986 37.6552 43.9052 36.9485 44.3506ZM44.7845 42.5639C44.5978 42.4319 44.6298 42.0039 45.2418 40.6692C45.4818 40.1452 46.0311 39.2639 46.9831 38.4212C47.0938 38.7679 47.1605 39.0999 47.1591 39.4092C47.1471 41.4732 45.6752 42.2439 44.7845 42.5639Z" fill="#F06292"/>
</svg>
