<svg width="65" height="64" viewBox="0 0 65 64" fill="none" xmlns="http://www.w3.org/2000/svg">
<g clip-path="url(#clip0_327_483)">
<path d="M61.5908 0H3.59082C1.93397 0 0.59082 1.34315 0.59082 3V61C0.59082 62.6569 1.93397 64 3.59082 64H61.5908C63.2477 64 64.5908 62.6569 64.5908 61V3C64.5908 1.34315 63.2477 0 61.5908 0Z" fill="#3178C6"/>
<path fill-rule="evenodd" clip-rule="evenodd" d="M37.7219 49.734V56.747C38.8581 57.331 40.2018 57.7695 41.7532 58.0615C43.3045 58.354 44.9396 58.5 46.6584 58.5C48.3336 58.5 49.9249 58.3395 51.4323 58.018C52.9403 57.6965 54.2618 57.167 55.3983 56.429C56.5343 55.691 57.4338 54.727 58.0968 53.536C58.7593 52.3455 59.0908 50.8735 59.0908 49.1203C59.0908 47.8493 58.9013 46.7353 58.5228 45.7783C58.1438 44.8214 57.5978 43.9704 56.8838 43.2252C56.1703 42.4801 55.3143 41.8117 54.3168 41.22C53.3188 40.6283 52.1938 40.0694 50.9408 39.5435C50.0232 39.1636 49.2002 38.7947 48.4719 38.4368C47.7436 38.0788 47.1245 37.7136 46.6147 37.341C46.1049 36.9684 45.7116 36.574 45.4348 36.1576C45.1581 35.7413 45.0197 35.27 45.0197 34.7441C45.0197 34.2619 45.1435 33.8273 45.3911 33.4402C45.6388 33.053 45.9884 32.7206 46.4399 32.443C46.8915 32.1655 47.445 31.95 48.1005 31.7966C48.756 31.6431 49.4843 31.5664 50.2854 31.5664C50.8683 31.5664 51.4833 31.6103 52.1318 31.6979C52.7798 31.7856 53.4318 31.9207 54.0873 32.1034C54.7428 32.286 55.3798 32.5161 55.9993 32.7937C56.6183 33.0713 57.1898 33.3927 57.7143 33.7579V27.2054C56.6508 26.7963 55.4893 26.4931 54.2293 26.2959C52.9693 26.0986 51.5238 26 49.8921 26C48.2316 26 46.6584 26.1789 45.1726 26.5369C43.6869 26.8948 42.3795 27.4537 41.2506 28.2134C40.1217 28.9731 39.2295 29.941 38.5741 31.1171C37.9186 32.2932 37.5908 33.6995 37.5908 35.3358C37.5908 37.4251 38.1917 39.2074 39.3934 40.683C40.5952 42.1587 42.4196 43.4079 44.8667 44.4305C45.8281 44.825 46.724 45.2122 47.5542 45.592C48.3845 45.9719 49.1019 46.3664 49.7064 46.7755C50.3109 47.1846 50.7878 47.6302 51.1373 48.1123C51.4873 48.5944 51.6618 49.1423 51.6618 49.7559C51.6618 50.209 51.5528 50.629 51.3343 51.016C51.1158 51.403 50.7843 51.739 50.3401 52.024C49.8958 52.309 49.3423 52.532 48.6795 52.6925C48.0167 52.853 47.2411 52.9335 46.3525 52.9335C44.8376 52.9335 43.3373 52.667 41.8515 52.1335C40.3657 51.6005 38.9892 50.8005 37.7219 49.734ZM25.9421 32.2772H35.0908V26.5H9.59082V32.2772H18.6948V58H25.9421V32.2772Z" fill="white"/>
</g>
<defs>
<clipPath id="clip0_327_483">
<rect width="64" height="64" fill="white" transform="translate(0.59082)"/>
</clipPath>
</defs>
</svg>
