<svg width="65" height="64" viewBox="0 0 65 64" fill="none" xmlns="http://www.w3.org/2000/svg">
<g clip-path="url(#clip0_327_511)">
<path d="M64.5 49.59C62.172 50.182 60.732 49.616 59.44 47.676L50.252 34.964L48.924 33.204L38.194 47.718C36.968 49.464 35.682 50.224 33.394 49.606L47.134 31.162L34.342 14.502C36.542 14.074 38.062 14.292 39.412 16.262L48.942 29.132L58.542 16.332C59.772 14.586 61.094 13.922 63.302 14.566L58.342 21.142L51.622 29.892C50.822 30.892 50.932 31.576 51.668 32.542L64.5 49.59ZM0.516 30.854L1.64 25.326C4.7 14.386 17.24 9.84002 25.888 16.6C30.942 20.576 32.198 26.2 31.948 32.5H3.46C3.032 43.84 11.194 50.684 21.6 47.192C25.25 45.966 27.4 43.108 28.476 39.532C29.022 37.74 29.926 37.46 31.61 37.972C30.75 42.444 28.81 46.18 24.71 48.518C18.584 52.018 9.84 50.886 5.24 46.022C2.5 43.2 1.368 39.624 0.86 35.8C0.78 35.168 0.62 34.566 0.5 33.96C0.510667 32.9254 0.516 31.8907 0.516 30.856V30.854ZM3.512 30.094H29.256C29.088 21.894 23.982 16.07 17.004 16.02C9.344 15.96 3.844 21.646 3.512 30.094Z" fill="black"/>
</g>
<defs>
<clipPath id="clip0_327_511">
<rect width="64" height="64" fill="white" transform="translate(0.5)"/>
</clipPath>
</defs>
</svg>
