<svg width="70" height="64" viewBox="0 0 70 64" fill="none" xmlns="http://www.w3.org/2000/svg">
<g clip-path="url(#clip0_327_488)">
<path d="M35.091 38.7725C38.7633 38.7725 41.7404 35.7404 41.7404 32C41.7404 28.2597 38.7633 25.2275 35.091 25.2275C31.4187 25.2275 28.4417 28.2597 28.4417 32C28.4417 35.7404 31.4187 38.7725 35.091 38.7725Z" fill="#087EA4"/>
<path d="M35.091 47.2382C53.4527 47.2382 68.3378 40.4158 68.3378 32.0001C68.3378 23.5843 53.4527 16.762 35.091 16.762C16.7293 16.762 1.84424 23.5843 1.84424 32.0001C1.84424 40.4158 16.7293 47.2382 35.091 47.2382Z" stroke="#087EA4" stroke-width="3"/>
<path d="M22.1344 39.619C31.3153 55.8152 44.5587 65.5336 51.7144 61.3257C58.8702 57.1178 57.2285 40.5771 48.0477 24.3809C38.8669 8.18475 25.6234 -1.53366 18.4677 2.67422C11.3119 6.88211 12.9536 23.4228 22.1344 39.619Z" stroke="#087EA4" stroke-width="3"/>
<path d="M22.1342 24.3808C12.9534 40.577 11.3118 57.1177 18.4675 61.3256C25.6233 65.5335 38.8667 55.8151 48.0475 39.6189C57.2284 23.4228 58.87 6.88205 51.7143 2.67416C44.5585 -1.53372 31.3151 8.18469 22.1342 24.3808Z" stroke="#087EA4" stroke-width="3"/>
</g>
<defs>
<clipPath id="clip0_327_488">
<rect width="69.8182" height="64" fill="white" transform="translate(0.181885)"/>
</clipPath>
</defs>
</svg>
