<svg width="64" height="64" viewBox="0 0 64 64" fill="none" xmlns="http://www.w3.org/2000/svg">
<path d="M0 64V0H64V64H0Z" fill="#FFD600"/>
<path d="M41.8454 47.9057C43.0756 49.9039 44.4125 51.8186 47.2445 51.8186C49.6231 51.8186 50.8712 50.6363 50.8712 49.0008C50.8712 47.0434 49.5805 46.3483 46.9636 45.2088L45.5289 44.5972C41.3885 42.8408 38.6347 40.6399 38.6347 35.991C38.6347 31.7066 41.9147 28.4461 47.04 28.4461C50.6898 28.4461 53.312 29.7101 55.2036 33.0203L50.7343 35.8772C49.7511 34.1208 48.688 33.4292 47.04 33.4292C45.3583 33.4292 44.2934 34.4906 44.2934 35.8772C44.2934 37.591 45.36 38.2843 47.8223 39.3457L49.2569 39.9572C54.1369 42.0354 56.8889 44.1581 56.8889 48.9297C56.8889 54.071 52.8285 56.8888 47.3778 56.8888C42.0463 56.8888 39.0187 54.2132 37.3334 50.9012L41.8454 47.9057ZM21.248 48.0514C22.1476 49.6621 23.5147 50.9012 25.4809 50.9012C27.3618 50.9012 28.4445 50.1581 28.4445 47.2692V28.4443H34.3698V48.1795C34.3698 54.1652 30.8978 56.8888 25.8276 56.8888C21.2463 56.8888 17.9396 53.7848 16.592 50.9012L21.248 48.0514Z" fill="#000001"/>
</svg>
