<svg width="65" height="64" viewBox="0 0 65 64" fill="none" xmlns="http://www.w3.org/2000/svg">
<g clip-path="url(#clip0_327_519)">
<path d="M64.5201 31.295C64.3461 20.595 58.3801 10.177 49.1501 4.69099C41.8781 0.161987 32.6921 -1.05701 24.4181 1.03299C11.9651 4.16799 2.03711 15.446 0.775107 28.3C-0.792893 40.44 5.34711 53.066 15.8401 59.292C26.1161 65.736 40.0931 65.475 50.1401 58.692C59.1971 52.814 64.8141 42.092 64.5101 31.304L64.5201 31.295ZM34.3021 59.25C19.7591 60.687 5.69511 48.365 5.30211 33.778C4.20211 21.935 12.0071 10.222 23.1541 6.30299C38.7861 0.0329871 57.9881 11.615 59.5991 28.38C62.1251 43.444 49.5851 58.78 34.3021 59.25ZM24.7321 30.38L45.7621 13.18L34.3981 30.423C31.1761 30.423 27.9541 30.424 24.7321 30.38ZM30.6451 33.56L40.3111 33.604L19.2811 50.847L30.6451 33.56Z" fill="#010101"/>
</g>
<defs>
<clipPath id="clip0_327_519">
<rect width="64" height="64" fill="white" transform="translate(0.532227)"/>
</clipPath>
</defs>
</svg>
