<svg width="44" height="64" viewBox="0 0 44 64" fill="none" xmlns="http://www.w3.org/2000/svg">
<g clip-path="url(#clip0_327_543)">
<path d="M22 31.9999C22 29.1709 23.1238 26.4578 25.1242 24.4574C27.1246 22.4571 29.8377 21.3333 32.6667 21.3333C35.4956 21.3333 38.2087 22.4571 40.2091 24.4574C42.2095 26.4578 43.3333 29.1709 43.3333 31.9999C43.3333 34.8289 42.2095 37.542 40.2091 39.5424C38.2087 41.5428 35.4956 42.6666 32.6667 42.6666C29.8377 42.6666 27.1246 41.5428 25.1242 39.5424C23.1238 37.542 22 34.8289 22 31.9999Z" fill="#1ABCFE"/>
<path d="M0.666748 53.3334C0.666748 50.5044 1.79055 47.7913 3.79094 45.7909C5.79133 43.7906 8.50444 42.6667 11.3334 42.6667H22.0001V53.3334C22.0001 56.1624 20.8763 58.8755 18.8759 60.8759C16.8755 62.8763 14.1624 64.0001 11.3334 64.0001C8.50444 64.0001 5.79133 62.8763 3.79094 60.8759C1.79055 58.8755 0.666748 56.1624 0.666748 53.3334Z" fill="#0ACF83"/>
<path d="M22 0V21.3333H32.6667C35.4956 21.3333 38.2087 20.2095 40.2091 18.2091C42.2095 16.2087 43.3333 13.4956 43.3333 10.6667C43.3333 7.83769 42.2095 5.12458 40.2091 3.12419C38.2087 1.12381 35.4956 0 32.6667 0L22 0Z" fill="#FF7262"/>
<path d="M0.666748 10.6667C0.666748 13.4956 1.79055 16.2087 3.79094 18.2091C5.79133 20.2095 8.50444 21.3333 11.3334 21.3333H22.0001V0H11.3334C8.50444 0 5.79133 1.12381 3.79094 3.12419C1.79055 5.12458 0.666748 7.83769 0.666748 10.6667Z" fill="#F24E1E"/>
<path d="M0.666748 31.9999C0.666748 34.8289 1.79055 37.542 3.79094 39.5424C5.79133 41.5428 8.50444 42.6666 11.3334 42.6666H22.0001V21.3333H11.3334C8.50444 21.3333 5.79133 22.4571 3.79094 24.4574C1.79055 26.4578 0.666748 29.1709 0.666748 31.9999Z" fill="#A259FF"/>
</g>
<defs>
<clipPath id="clip0_327_543">
<rect width="42.6667" height="64" fill="white" transform="translate(0.666748)"/>
</clipPath>
</defs>
</svg>
