<svg width="58" height="64" viewBox="0 0 58 64" fill="none" xmlns="http://www.w3.org/2000/svg">
<g clip-path="url(#clip0_327_506)">
<path d="M29.0995 64C28.2415 64 27.4407 63.7668 26.6972 63.3586L19.0898 58.7517C17.9459 58.1102 18.5178 57.877 18.8611 57.7603C20.4054 57.2355 20.6914 57.1189 22.2929 56.1859C22.4645 56.0692 22.6933 56.1275 22.8649 56.2442L28.6991 59.8014C28.9279 59.918 29.2139 59.918 29.3855 59.8014L52.2074 46.3307C52.4362 46.214 52.5506 45.9808 52.5506 45.6892V18.806C52.5506 18.5145 52.4362 18.2812 52.2074 18.1646L29.3855 4.75223C29.1567 4.63561 28.8706 4.63561 28.6991 4.75223L5.87713 18.1646C5.64834 18.2812 5.53394 18.5728 5.53394 18.806V45.6892C5.53394 45.9224 5.64834 46.214 5.87713 46.3307L12.1117 50.0045C15.4864 51.7539 17.6027 49.7129 17.6027 47.6719V21.1386C17.6027 20.7888 17.8887 20.4389 18.2891 20.4389H21.2062C21.5494 20.4389 21.8925 20.7305 21.8925 21.1386V47.6719C21.8925 52.2788 19.433 54.9613 15.1432 54.9613C13.8276 54.9613 12.7981 54.9613 9.88096 53.5034L3.87521 50.0045C2.38807 49.1297 1.4729 47.4969 1.4729 45.7475V18.8644C1.4729 17.115 2.38807 15.4822 3.87521 14.6074L26.6972 1.13672C28.1271 0.320313 30.0718 0.320313 31.5018 1.13672L54.3237 14.6074C55.8109 15.4822 56.726 17.115 56.726 18.8644V45.7475C56.726 47.4969 55.8109 49.1297 54.3237 50.0045L31.5018 63.4752C30.8154 63.7668 29.9575 64 29.0995 64Z" fill="#5FA04E"/>
<path d="M36.192 45.5143C26.1824 45.5143 24.1233 40.8491 24.1233 36.8837C24.1233 36.5339 24.4093 36.184 24.8096 36.184H27.7839C28.1271 36.184 28.4131 36.4172 28.4131 36.7671C28.8707 39.8577 30.1863 41.374 36.2492 41.374C41.0538 41.374 43.113 40.266 43.113 37.6418C43.113 36.1256 42.541 35.0176 35.048 34.2595C28.8135 33.6181 24.9241 32.2186 24.9241 27.1451C24.9241 22.4216 28.8135 19.6226 35.3341 19.6226C42.6553 19.6226 46.2588 22.1884 46.7164 27.7866C46.7164 27.9616 46.6592 28.1365 46.5448 28.3115C46.4305 28.4281 46.2588 28.5447 46.0872 28.5447H43.0558C42.7697 28.5447 42.4838 28.3115 42.4266 28.0198C41.7402 24.8126 39.9671 23.7629 35.2769 23.7629C30.0146 23.7629 29.3855 25.629 29.3855 27.0285C29.3855 28.7196 30.1291 29.2445 37.2216 30.1775C44.2569 31.1106 47.5744 32.4518 47.5744 37.4669C47.5744 42.5986 43.3989 45.5143 36.192 45.5143Z" fill="#5FA04E"/>
</g>
<defs>
<clipPath id="clip0_327_506">
<rect width="56.32" height="64" fill="white" transform="translate(0.840088)"/>
</clipPath>
</defs>
</svg>
