<svg width="67" height="64" viewBox="0 0 67 64" fill="none" xmlns="http://www.w3.org/2000/svg">
<path fill-rule="evenodd" clip-rule="evenodd" d="M38.2875 1.06177C37.8357 1.06177 37.4162 1.15886 37.029 1.2883C37.8519 1.83845 38.3036 2.5666 38.5295 3.39183C38.5457 3.50509 38.5779 3.586 38.5941 3.69926C38.6103 3.79635 38.6263 3.89344 38.6263 3.99053C38.6909 5.41445 38.2552 5.59244 37.9487 6.43385C37.4808 7.51798 37.6098 8.68301 38.1746 9.6215C38.223 9.73477 38.2875 9.86421 38.3682 9.97748C37.7551 5.8837 41.1595 5.26882 41.7888 3.99053C41.8372 2.87404 40.9175 2.12971 40.1914 1.61192C39.4976 1.19122 38.8684 1.06177 38.2875 1.06177ZM43.4184 1.98408C43.3539 2.35624 43.4023 2.25916 43.3862 2.45333C43.3701 2.58278 43.3701 2.74459 43.354 2.87404C43.3217 3.00348 43.2894 3.13293 43.241 3.26238C43.2088 3.39183 43.1603 3.52128 43.1119 3.65072C43.0474 3.78018 42.999 3.89344 42.9344 4.02288C42.886 4.08764 42.8538 4.15233 42.8054 4.21706C42.7731 4.2656 42.7408 4.31414 42.7086 4.36269C42.6279 4.47596 42.5472 4.58922 42.4665 4.6863C42.3697 4.78339 42.289 4.89666 42.1761 4.97757V4.99377C42.0793 5.07467 41.9825 5.17176 41.8695 5.25266C41.5307 5.51155 41.1435 5.70573 40.7885 5.94844C40.6755 6.02935 40.5626 6.09407 40.4658 6.19116C40.3528 6.27206 40.256 6.35296 40.1592 6.45005C40.0463 6.54714 39.9656 6.64423 39.8688 6.75749C39.7881 6.85458 39.6913 6.96784 39.6268 7.08111C39.5461 7.19438 39.4654 7.30765 39.4009 7.42091C39.3363 7.55035 39.2879 7.66363 39.2234 7.79307C39.175 7.92252 39.1266 8.03579 39.0943 8.16523C39.0459 8.31086 39.0136 8.44031 38.9814 8.56976C38.9652 8.63451 38.9652 8.71539 38.9491 8.78011C38.9329 8.84486 38.9329 8.90956 38.9169 8.97429C38.9169 9.10373 38.9007 9.24936 38.9007 9.37881C38.9007 9.47589 38.9007 9.57298 38.9169 9.67007C38.9169 9.79951 38.933 9.92896 38.9653 10.0746C38.9814 10.204 39.0137 10.3335 39.046 10.4629C39.0944 10.5924 39.1266 10.7218 39.175 10.8513C39.2073 10.9322 39.2557 11.0131 39.288 11.0778L35.5769 9.6377C34.9477 9.45971 34.3345 9.29791 33.7053 9.15228C33.3664 9.07137 33.0276 8.99046 32.6888 8.90956C31.7206 8.71539 30.7364 8.56976 29.7522 8.47268C29.7199 8.47268 29.7038 8.45647 29.6715 8.45647C28.7034 8.35939 27.7514 8.31085 26.7833 8.31085C26.0734 8.31085 25.3634 8.34318 24.6696 8.39175C23.6854 8.4565 22.7012 8.58592 21.7169 8.74773C21.4749 8.78007 21.2329 8.82864 20.9908 8.87718C20.4907 8.97426 20.0066 9.08753 19.5387 9.2008C19.2967 9.26555 19.0546 9.33025 18.8126 9.39497C18.5706 9.49205 18.3447 9.60532 18.1188 9.70241C17.9413 9.78331 17.7638 9.86422 17.5864 9.94513C17.5541 9.96133 17.5218 9.96133 17.5057 9.97746C17.3443 10.0584 17.1991 10.1231 17.0539 10.204C17.0055 10.2202 16.9732 10.2363 16.941 10.2525C16.7635 10.3334 16.586 10.4305 16.4408 10.5114C16.3278 10.56 16.2149 10.6247 16.1181 10.6732C16.0697 10.7056 16.0051 10.738 15.9729 10.7541C15.8276 10.8351 15.6824 10.916 15.5533 10.9969C15.4081 11.0778 15.279 11.1587 15.1661 11.2396C15.0532 11.3205 14.9402 11.3852 14.8434 11.4661C14.8272 11.4823 14.8112 11.4823 14.795 11.4984C14.6982 11.5632 14.5852 11.6441 14.4884 11.725C14.4884 11.725 14.4723 11.7412 14.4562 11.7573C14.3755 11.8221 14.2948 11.8868 14.2142 11.9515C14.1819 11.9677 14.1496 12 14.1174 12.0162C14.0367 12.081 13.956 12.1619 13.8753 12.2266C13.8592 12.2589 13.8269 12.2751 13.8108 12.2913C13.714 12.3884 13.6171 12.4693 13.5203 12.5664C13.5042 12.5664 13.5042 12.5826 13.4881 12.5988C13.3913 12.6797 13.2945 12.7767 13.1977 12.8738C13.1815 12.89 13.1815 12.9062 13.1654 12.9062C13.0847 12.9871 13.0041 13.068 12.9234 13.1651C12.8911 13.1974 12.8427 13.2298 12.8104 13.2621C12.7298 13.3592 12.633 13.4563 12.5361 13.5534C12.52 13.5857 12.4877 13.6019 12.4716 13.6343C12.3425 13.7638 12.2296 13.8932 12.1005 14.0227C12.0843 14.0389 12.0682 14.055 12.0521 14.0712C11.7939 14.3463 11.5196 14.6213 11.2292 14.8641C10.9388 15.123 10.6322 15.3657 10.3256 15.576C10.0029 15.8026 9.69635 15.9967 9.35752 16.1909C9.03481 16.3689 8.69598 16.5307 8.34101 16.6763C8.00217 16.822 7.6472 16.9514 7.29223 17.0647C6.61456 17.2103 5.92075 17.4854 5.32376 17.5339C5.19468 17.5339 5.04946 17.5663 4.92038 17.5825C4.77517 17.6148 4.64609 17.6472 4.51701 17.6796C4.38793 17.7281 4.25884 17.7766 4.12977 17.8252C4.00069 17.8737 3.87161 17.9384 3.74253 18.0032C3.62958 18.0841 3.5005 18.1488 3.38755 18.2297C3.27461 18.3106 3.16166 18.4077 3.06485 18.5048C2.95191 18.5857 2.83896 18.699 2.74215 18.796C2.64534 18.9093 2.54853 19.0064 2.46786 19.1197C2.38718 19.2491 2.29037 19.3624 2.22583 19.4918C2.14516 19.6051 2.06448 19.7345 1.99994 19.864C1.93537 20.0096 1.87086 20.1391 1.82246 20.2847C1.77405 20.4141 1.72564 20.5598 1.67724 20.7054C1.64499 20.8348 1.61267 20.9643 1.59657 21.0937C1.59657 21.11 1.58041 21.1261 1.58041 21.1423C1.54816 21.2879 1.54816 21.4821 1.532 21.5792C1.51584 21.6924 1.49976 21.7895 1.49976 21.9028C1.49976 21.9675 1.49976 22.0484 1.51592 22.1131C1.53208 22.2264 1.54816 22.3235 1.58048 22.4206C1.61273 22.5177 1.64505 22.6147 1.69342 22.7118V22.728C1.74183 22.8251 1.80637 22.9222 1.87091 23.0193C1.93547 23.1164 1.99999 23.2135 2.08067 23.3106C2.16134 23.3915 2.25815 23.4885 2.35496 23.5695C2.45177 23.6665 2.54858 23.7474 2.66152 23.8283C3.04877 24.1681 3.14558 24.2814 3.64576 24.5403C3.72644 24.5889 3.80712 24.6212 3.90393 24.6698C3.92009 24.6698 3.93617 24.686 3.95233 24.686C3.95233 24.7183 3.95233 24.7345 3.9685 24.7669C3.98466 24.8963 4.0169 25.0258 4.04917 25.1552C4.08141 25.3008 4.12985 25.4303 4.17826 25.5436C4.22666 25.6406 4.25893 25.7377 4.30733 25.8348C4.32349 25.8672 4.33958 25.8996 4.35574 25.9157C4.42031 26.0452 4.48482 26.1584 4.54935 26.2717C4.63004 26.385 4.71071 26.4982 4.79138 26.6115C4.87206 26.7086 4.96887 26.8219 5.06568 26.9189C5.16249 27.016 5.2593 27.0969 5.37225 27.194C5.37225 27.194 5.38841 27.2102 5.40449 27.2102C5.5013 27.2911 5.59811 27.3721 5.69493 27.4368C5.80787 27.5177 5.92081 27.5824 6.04989 27.6471C6.16284 27.7119 6.29192 27.7766 6.421 27.8251C6.51781 27.8737 6.63075 27.906 6.7437 27.9384C6.75986 27.9546 6.77594 27.9546 6.80827 27.9707C6.87283 27.987 6.95347 28.0031 7.01802 28.0193C6.96961 28.893 6.95345 29.7183 7.08258 30.0095C7.22779 30.3331 7.93774 29.3461 8.64768 28.2134C8.55087 29.3299 8.48633 30.6406 8.64768 31.0289C8.82516 31.4334 9.79327 30.1713 10.6323 28.7798C22.072 26.1261 32.5114 34.0548 33.6086 45.252C33.3988 43.5044 31.2529 42.5336 30.2686 42.7763C29.7846 43.9737 28.9617 45.5109 27.6386 46.4656C27.7516 45.3976 27.7032 44.2973 27.4773 43.2294C27.1223 44.718 26.4285 46.1096 25.4765 47.307C23.9437 47.4202 22.4109 46.6759 21.6041 45.5594C21.5395 45.5109 21.5234 45.4138 21.475 45.3491C21.4266 45.2358 21.3782 45.1226 21.3459 45.0093C21.2975 44.896 21.2653 44.7827 21.2491 44.6695C21.233 44.5562 21.233 44.4429 21.233 44.3135C21.233 44.2326 21.233 44.1517 21.233 44.0708C21.2491 43.9575 21.2814 43.8442 21.3136 43.731C21.3459 43.6177 21.3782 43.5044 21.4266 43.3912C21.4912 43.2779 21.5395 43.1646 21.6202 43.0514C21.8945 42.2747 21.8945 41.6436 21.3943 41.2715C21.2975 41.2067 21.2007 41.1582 21.0878 41.1097C21.0232 41.0935 20.9425 41.0611 20.878 41.0449C20.8296 41.0287 20.7973 41.0126 20.7489 40.9964C20.636 40.964 20.523 40.9316 20.4101 40.9155C20.2971 40.8831 20.1842 40.8669 20.0713 40.8669C19.9583 40.8507 19.8292 40.8346 19.7163 40.8346C19.6356 40.8346 19.5549 40.8508 19.4743 40.8508C19.3452 40.8508 19.2322 40.867 19.1193 40.8993C19.0063 40.9156 18.8934 40.9317 18.7804 40.9641C18.6675 40.9964 18.5546 41.0288 18.4416 41.0774C18.3287 41.1259 18.2319 41.1744 18.1189 41.223C18.0221 41.2715 17.9253 41.3362 17.8123 41.3848C14.0529 43.8443 16.2957 49.6047 18.8611 51.2714C17.893 51.4493 16.9088 51.6597 16.6345 51.8701C16.6183 51.8863 16.6022 51.9024 16.6022 51.9024C17.2961 52.3231 18.0221 52.6791 18.7805 52.9865C19.8131 53.3263 20.9103 53.6338 21.3944 53.7632V53.7794C22.7336 54.0545 24.0889 54.1516 25.4604 54.0707C32.6082 53.5691 38.4652 48.1161 39.5301 40.9317C39.5624 41.0773 39.5947 41.2068 39.6269 41.3524C39.6754 41.6437 39.7399 41.9511 39.7722 42.2586V42.2748C39.8044 42.4204 39.8206 42.566 39.8367 42.6955V42.7602C39.8529 42.9059 39.869 43.0515 39.869 43.1809C39.8851 43.3589 39.9012 43.5369 39.9012 43.7149V43.9738C39.9012 44.0547 39.9174 44.1518 39.9174 44.2327C39.9174 44.3298 39.9012 44.4269 39.9012 44.524V44.7505C39.9012 44.8638 39.885 44.9608 39.885 45.0741C39.885 45.1389 39.885 45.2036 39.8689 45.2845C39.8689 45.3977 39.8527 45.511 39.8527 45.6404C39.8365 45.689 39.8365 45.7375 39.8365 45.7861C39.8204 45.9155 39.8043 46.0288 39.7881 46.1582C39.7881 46.2068 39.7881 46.2553 39.772 46.3039C39.7558 46.4657 39.7236 46.6113 39.7074 46.7731V46.7893V46.8055C39.6752 46.9512 39.6428 47.113 39.6106 47.2586V47.3072C39.5784 47.4528 39.546 47.5984 39.5138 47.744C39.5138 47.7603 39.4976 47.7926 39.4976 47.8088C39.4654 47.9544 39.4331 48.1 39.3847 48.2457V48.2942C39.3363 48.456 39.2879 48.6016 39.2556 48.7473C39.2395 48.7635 39.2395 48.7796 39.2395 48.7796C39.1911 48.9414 39.1427 49.1032 39.0942 49.265C39.0297 49.4269 38.9813 49.5725 38.9168 49.7343C38.8522 49.8961 38.8038 50.0579 38.7393 50.2035C38.6747 50.3654 38.6102 50.511 38.5457 50.6728H38.5295C38.4649 50.8184 38.4004 50.9802 38.3197 51.1259C38.3036 51.1744 38.2875 51.2068 38.2713 51.2391C38.2552 51.2553 38.2552 51.2715 38.2391 51.2877C37.1903 53.4074 35.6413 55.2682 33.7051 56.7245C33.576 56.8054 33.447 56.9025 33.3179 56.9995C33.2856 57.0319 33.2372 57.0481 33.2049 57.0804C33.092 57.1614 32.979 57.2423 32.85 57.3232L32.8984 57.4203H32.9145C33.1404 57.3879 33.3663 57.3555 33.5922 57.3232H33.6084C34.0279 57.2584 34.4474 57.1775 34.8669 57.0966C34.9798 57.0804 35.1089 57.0481 35.2219 57.0157C35.3025 56.9995 35.3671 56.9834 35.4478 56.9672C35.5607 56.951 35.6736 56.9186 35.7866 56.9024C35.8834 56.8701 35.9802 56.8539 36.077 56.8215C37.6905 56.4332 39.2556 55.8992 40.7562 55.2682C38.1907 58.7794 34.7539 61.6111 30.7363 63.4719C32.5919 63.3425 34.4474 63.035 36.2384 62.5172C42.7408 60.5917 48.2106 56.2066 51.486 50.3006C50.8244 54.0384 49.34 57.5982 47.1457 60.705C48.7108 59.6694 50.1468 58.472 51.4537 57.1128C55.068 53.3264 57.4398 48.5207 58.2466 43.359C58.7951 45.9156 58.9565 48.5531 58.7145 51.1582C70.364 34.8639 59.6826 17.971 55.2132 13.5213C55.197 13.4889 55.1809 13.4727 55.1809 13.4404C55.1647 13.4566 55.1647 13.4566 55.1647 13.4727C55.1647 13.4565 55.1647 13.4565 55.1486 13.4404C55.1486 13.6345 55.1324 13.8287 55.1163 14.0229C55.0679 14.395 55.0195 14.751 54.955 15.107C54.8743 15.463 54.7775 15.8189 54.6807 16.1749C54.5678 16.5147 54.4387 16.8707 54.2935 17.2105C54.1482 17.5341 53.9869 17.8739 53.8094 18.1976C53.6319 18.505 53.4383 18.8286 53.2285 19.1199C53.0188 19.4273 52.7929 19.7186 52.567 19.9936C52.325 20.2849 52.0668 20.5438 51.8087 20.8027C51.6473 20.9483 51.5021 21.0778 51.3407 21.2072C51.2117 21.3205 51.0987 21.4176 50.9696 21.5308C50.6792 21.7574 50.3888 21.9677 50.0661 22.1619C49.7595 22.3561 49.4368 22.5502 49.1141 22.712C48.7753 22.8739 48.4364 23.0195 48.0976 23.1651C47.7588 23.2946 47.4038 23.4078 47.0488 23.5049C46.6939 23.602 46.3228 23.6829 45.9678 23.7476C45.5967 23.8124 45.2256 23.8447 44.8706 23.8771C44.6124 23.8933 44.3543 23.9094 44.0961 23.9094C43.725 23.9094 43.3539 23.8771 42.9989 23.8447C42.6278 23.8123 42.2567 23.7638 41.9018 23.6828C41.5306 23.6181 41.1757 23.521 40.8207 23.4078H40.8046C41.1595 23.3754 41.5145 23.343 41.8695 23.2783C42.2406 23.2136 42.5955 23.1327 42.9505 23.0356C43.3055 22.9385 43.6604 22.8253 43.9993 22.6958C44.3543 22.5664 44.6931 22.4046 45.0158 22.2427C45.3546 22.0809 45.6612 21.9029 45.9839 21.7088C46.2905 21.4984 46.597 21.2881 46.8875 21.0615C47.1779 20.835 47.4522 20.5923 47.7103 20.3334C47.9846 20.0907 48.2267 19.8156 48.4687 19.5405C48.7107 19.2493 48.9366 18.958 49.1464 18.6667C49.1786 18.6182 49.2109 18.5535 49.2432 18.5049C49.4045 18.246 49.5659 17.9871 49.7111 17.7282C49.8886 17.4046 50.0499 17.081 50.1951 16.7412C50.3404 16.4014 50.4694 16.0616 50.5824 15.7056C50.6953 15.3658 50.776 15.0098 50.8567 14.6539C50.9212 14.2817 50.9858 13.9257 51.018 13.5697C51.0503 13.1976 51.0826 12.8254 51.0826 12.4694C51.0826 12.2105 51.0664 11.9516 51.0503 11.6928C51.0181 11.3206 50.9697 10.9646 50.9213 10.6086C50.8567 10.2365 50.7761 9.88049 50.6792 9.5245C50.5663 9.18471 50.4533 8.82872 50.3243 8.48893C50.1952 8.14912 50.0338 7.80932 49.8725 7.4857C49.695 7.16208 49.5175 6.83846 49.3239 6.53103C49.1141 6.22359 48.9044 5.93233 48.6785 5.64107C48.4365 5.36599 48.1944 5.09092 47.9363 4.81584C47.8072 4.6864 47.662 4.54077 47.5168 4.41132C46.7907 3.84498 46.0323 3.31101 45.274 2.82558C45.1611 2.76084 45.0643 2.71232 44.9513 2.66377C44.4188 2.32397 43.9186 2.14589 43.4184 1.98408Z" fill="#E0234E"/>
</svg>
