<svg width="64" height="64" viewBox="0 0 64 64" fill="none" xmlns="http://www.w3.org/2000/svg">
<g clip-path="url(#clip0_327_551)">
<path d="M1.1387 40.4783C0.384155 37.7304 0 34.8763 0 32.0016C0 18.8788 8.24168 6.87991 20.5099 2.14819L22.1184 6.31115C11.5582 10.385 4.46553 20.7084 4.46553 32.0016C4.46553 34.4788 4.79477 36.932 5.443 39.2962L1.1387 40.4783Z" fill="#58D09E"/>
<path d="M20.2955 2.25038C22.9495 1.21274 25.7478 0.532349 28.6067 0.231864C41.6576 -1.13984 54.4523 5.80246 60.4405 17.5088L56.4685 19.5437C51.3131 9.46722 40.3048 3.49247 29.0735 4.67293C26.6099 4.93187 24.2045 5.51574 21.9211 6.40753L20.2955 2.25038Z" fill="#58D09E"/>
<path d="M46.6472 55.2684C55.3616 49.7136 60.2154 39.8556 59.3136 29.5473C58.994 25.8949 57.9803 22.4065 56.3056 19.1859L60.2626 17.1217C62.2101 20.8659 63.3898 24.9147 63.7611 29.1582C64.8088 41.1338 59.1724 52.582 49.0473 59.035L46.6472 55.2684Z" fill="black"/>
<path d="M22.5026 25.3991C25.0919 25.3991 27.2013 26.7799 28.2851 29.1886L28.3709 29.3771L32.7197 27.9003L32.6271 27.6776C30.9431 23.5763 27.0641 21.0271 22.5026 21.0271C19.2957 21.0271 16.6891 22.0551 14.5353 24.1656C12.395 26.2626 11.3113 28.9008 11.3113 32.0084C11.3113 35.0887 12.395 37.7132 14.5353 39.8102C16.6891 41.9208 19.2957 42.9487 22.5026 42.9487C27.0641 42.9487 30.9431 40.3995 32.6271 36.3016L32.7197 36.079L28.3639 34.5987L28.2817 34.794C27.311 37.1616 25.1503 38.5767 22.5026 38.5767C20.6985 38.5767 19.1757 37.9463 17.9683 36.7059C16.7474 35.4484 16.1301 33.869 16.1301 32.0119C16.1301 30.1411 16.7337 28.5924 17.9683 27.2767C19.1722 26.0296 20.6985 25.3991 22.5026 25.3991Z" fill="black"/>
<path d="M49.7415 21.4316L43.544 37.1138L37.3054 21.4316H32.2019L40.9511 42.8358L34.7262 57.932L39.1883 58.8195L54.5638 21.4316H49.7415Z" fill="black"/>
<path d="M35.5245 55.9859L34.4373 58.6174C34.2212 59.1382 33.7273 59.491 33.1717 59.515C32.8048 59.5287 32.4344 59.539 32.0605 59.539C19.2641 59.5322 7.94257 50.5107 5.13704 38.0801L0.78125 39.0634C2.35551 46.0359 6.30659 52.3643 11.9073 56.8871C17.5733 61.4611 24.7105 63.9863 32.0125 64.0001C32.0228 64.0001 32.0776 64.0001 32.0776 64.0001C32.5064 64.0001 32.9316 63.9898 33.3569 63.9727C35.648 63.8767 37.6956 62.4411 38.5701 60.3134L39.99 56.8734L35.5245 55.9859Z" fill="black"/>
</g>
<defs>
<clipPath id="clip0_327_551">
<rect width="64" height="64" fill="white"/>
</clipPath>
</defs>
</svg>
